Coordinates
version=1
nRows=21
nColumns=22
inDegrees=yes

Units are S.I. units (second, meters, Newtons, ...)
If the header above contains a line with 'inDegrees', this indicates whether rotational values are in degrees (yes) or radians (no).

endheader
time	pelvis_tilt	pelvis_list	pelvis_rotation	pelvis_tx	pelvis_ty	pelvis_tz	hip_flexion_r	hip_adduction_r	hip_rotation_r	knee_angle_r	ankle_angle_r	subtalar_angle_r	hip_flexion_l	hip_adduction_l	hip_rotation_l	knee_angle_l	ankle_angle_l	subtalar_angle_l	lumbar_extension	lumbar_bending	lumbar_rotation
      0.01000000	      2.07543799	     -3.40248473	     -0.03332920	      0.13489437	      1.01938223	      0.83374462	      7.37829632	      4.62289777	     -1.06832957	    -19.88482249	      9.89623083	     -2.60213836	      5.52409104	     -2.91443007	     -8.89790353	    -19.12851615	     12.53980362	     -3.48621199	    -14.46837650	      3.27211542	      3.01604194
      0.02000000	      2.07182675	     -3.40613712	     -0.03166561	      0.13481566	      1.01937295	      0.83359746	      7.38598831	      4.61854419	     -1.06722456	    -19.88080558	      9.89440714	     -2.60313346	      5.53011675	     -2.90949686	     -8.90066417	    -19.12321055	     12.54091328	     -3.48896525	    -14.48512807	      3.28064305	      3.01276184
      0.03000000	      2.07353081	     -3.40752437	     -0.02602240	      0.13472004	      1.01936701	      0.83341212	      7.40040790	      4.61012132	     -1.06099513	    -19.90127455	      9.87868364	     -2.60805842	      5.53186726	     -2.90068924	     -8.90886884	    -19.11767531	     12.54149331	     -3.50526350	    -14.50894795	      3.29206041	      2.98445253
      0.04000000	      2.06845257	     -3.41044529	     -0.02337608	      0.13462158	      1.01935942	      0.83323486	      7.41043629	      4.60346942	     -1.06043663	    -19.89580854	      9.87749912	     -2.60900195	      5.53845474	     -2.89358049	     -8.91321035	    -19.10856778	     12.54173665	     -3.50797694	    -14.52678147	      3.29740480	      2.98178108
      0.05000000	      2.06157115	     -3.38018498	     -0.01251002	      0.13453521	      1.01935492	      0.83300939	      7.43363141	      4.55563922	     -1.07472152	    -19.91575953	      9.85856390	     -2.62616838	      5.53740163	     -2.84552799	     -8.91897334	    -19.07881157	     12.51635807	     -3.56415467	    -14.53545138	      3.27113897	      2.93956970
      0.06000000	      2.05700665	     -3.38441520	     -0.00487070	      0.13444371	      1.01935159	      0.83280608	      7.44253939	      4.54919254	     -1.07214220	    -19.91233163	      9.85951802	     -2.62701480	      5.54217543	     -2.83873819	     -8.92404242	    -19.06683254	     12.51641611	     -3.56574301	    -14.54848907	      3.27984473	      2.93705845
      0.07000000	      2.04549596	     -3.36355581	      0.01777632	      0.13439428	      1.01934733	      0.83256482	      7.45891883	      4.51114309	     -1.09051110	    -19.91584817	      9.86070290	     -2.63679316	      5.54010497	     -2.79925978	     -8.91496882	    -19.02659212	     12.49171483	     -3.59863551	    -14.54016754	      3.26553452	      2.88090192
      0.08000000	      2.03879412	     -3.36636299	      0.03234120	      0.13435183	      1.01934584	      0.83234602	      7.46628343	      4.50177851	     -1.09453679	    -19.91331005	      9.86074982	     -2.63805224	      5.53789093	     -2.78981943	     -8.92290963	    -19.00001791	     12.48982552	     -3.60402195	    -14.53661221	      3.27476034	      2.85996492
      0.09000000	      2.02816222	     -3.36034464	      0.05277886	      0.13431567	      1.01934648	      0.83212799	      7.47015216	      4.48167528	     -1.11082187	    -19.89551639	      9.85707942	     -2.63795916	      5.53981622	     -2.77024077	     -8.92193709	    -18.97181759	     12.48194915	     -3.61227794	    -14.52776905	      3.27085071	      2.82232035
      0.10000000	      2.01774095	     -3.35015783	      0.08467112	      0.13427317	      1.01934932	      0.83188812	      7.47624197	      4.45465864	     -1.14159102	    -19.88170830	      9.85430320	     -2.63651596	      5.54539412	     -2.74314620	     -8.89723651	    -18.94719198	     12.46460395	     -3.62443037	    -14.52056092	      3.26369596	      2.77828219
      0.11000000	      2.00898147	     -3.34768342	      0.10904676	      0.13427131	      1.01935022	      0.83165762	      7.47567169	      4.43756910	     -1.15788265	    -19.86556281	      9.85349612	     -2.63453989	      5.54671322	     -2.72709174	     -8.89293847	    -18.92556663	     12.45938129	     -3.63081468	    -14.50495922	      3.26454737	      2.75347191
      0.12000000	      2.00574391	     -3.35149980	      0.12285388	      0.13422069	      1.01935351	      0.83145282	      7.47863619	      4.43081370	     -1.15753540	    -19.86136032	      9.85298770	     -2.63420987	      5.55117194	     -2.72015185	     -8.89516757	    -18.91787549	     12.45893727	     -3.63168785	    -14.50970512	      3.26700185	      2.75286279
      0.13000000	      1.98874207	     -3.33103620	      0.16803581	      0.13420560	      1.01934873	      0.83118459	      7.48787982	      4.38904645	     -1.20859717	    -19.84465006	      9.84379543	     -2.62393187	      5.56351756	     -2.67691468	     -8.83932296	    -18.89209592	     12.43090469	     -3.64907858	    -14.48812654	      3.24853366	      2.69213471
      0.14000000	      1.98022363	     -3.33218466	      0.18374673	      0.13419039	      1.01934671	      0.83096970	      7.48673325	      4.37718450	     -1.21870163	    -19.82555629	      9.84630044	     -2.62161484	      5.57131752	     -2.66630773	     -8.83947782	    -18.88330457	     12.43106902	     -3.65324799	    -14.48129249	      3.24660961	      2.69680751
      0.15000000	      1.97593353	     -3.33678836	      0.19520728	      0.13414835	      1.01934787	      0.83076302	      7.49020314	      4.37085251	     -1.21834327	    -19.82027737	      9.84604821	     -2.62115272	      5.57719148	     -2.65996571	     -8.84120329	    -18.87719029	     12.43116261	     -3.65396575	    -14.48830798	      3.24723302	      2.70012839
      0.16000000	      1.95303415	     -3.31788433	      0.22976882	      0.13412261	      1.01932403	      0.83050027	      7.50918812	      4.33114054	     -1.25917791	    -19.80888512	      9.83681683	     -2.60829545	      5.60267339	     -2.61880916	     -8.78731195	    -18.86510970	     12.41072634	     -3.66972317	    -14.46637354	      3.22425816	      2.68656108
      0.17000000	      1.94873676	     -3.32330103	      0.24337691	      0.13408757	      1.01932272	      0.83027658	      7.51213093	      4.32486273	     -1.25827123	    -19.80361934	      9.83763895	     -2.60797617	      5.61051619	     -2.61216183	     -8.78914360	    -18.86251317	     12.41105523	     -3.67045617	    -14.47543987	      3.22560236	      2.69402037
      0.18000000	      1.92344291	     -3.31638632	      0.28238151	      0.13403984	      1.01927799	      0.82999779	      7.54088923	      4.29682246	     -1.30536150	    -19.80320295	      9.84060769	     -2.59474181	      5.65700764	     -2.58471831	     -8.72612330	    -18.88350423	     12.40130355	     -3.68979276	    -14.45756925	      3.21461570	      2.70062487
      0.19000000	      1.91797125	     -3.31847599	      0.30115895	      0.13401015	      1.01926817	      0.82974856	      7.54200649	      4.28498567	     -1.30754549	    -19.79303176	      9.84069265	     -2.59233634	      5.67671604	     -2.57306726	     -8.71645899	    -18.90084770	     12.40181459	     -3.69375325	    -14.46503638	      3.21022746	      2.71883250
      0.20000000	      1.91180737	     -3.32131442	      0.32290877	      0.13396676	      1.01925193	      0.82948214	      7.55115022	      4.27239265	     -1.31471298	    -19.79475243	      9.83895697	     -2.58828435	      5.70115006	     -2.55980589	     -8.69092005	    -18.92359450	     12.40223778	     -3.69955787	    -14.47542792	      3.20701541	      2.73729522
      0.21000000	      1.87523245	     -3.32702836	      0.36918452	      0.13390949	      1.01917665	      0.82915829	      7.60409784	      4.25533889	     -1.36496526	    -19.81653432	      9.84242841	     -2.56649668	      5.76526600	     -2.54234302	     -8.61321100	    -18.95024965	     12.40876633	     -3.73056953	    -14.45047463	      3.21526282	      2.71161619
